<mxfile host="app.diagrams.net" modified="2021-07-07T03:31:11.589Z" agent="5.0 (Windows NT 10.0; Win64; x64) AppleWebKit/537.36 (KHTML, like Gecko) Chrome/91.0.4472.124 Safari/537.36 Edg/91.0.864.64" etag="Pprmltf_nlUrNWQA_NAm" version="14.8.4" type="github">
  <diagram id="eVYe_qnxnl_MVlcP4H25" name="Page-1">
    <mxGraphModel dx="1164" dy="550" grid="0" gridSize="10" guides="1" tooltips="1" connect="1" arrows="1" fold="1" page="0" pageScale="1" pageWidth="827" pageHeight="1169" math="0" shadow="0">
      <root>
        <mxCell id="0" />
        <mxCell id="1" parent="0" />
        <mxCell id="Cp7S3kw-1pVmLMMxV-p4-4" value="supplier" style="swimlane;fontStyle=0;childLayout=stackLayout;horizontal=1;startSize=26;horizontalStack=0;resizeParent=1;resizeParentMax=0;resizeLast=0;collapsible=1;marginBottom=0;fontSize=20;" vertex="1" parent="1">
          <mxGeometry x="1119" y="1214.5" width="157" height="140" as="geometry">
            <mxRectangle x="650" y="518" width="72" height="28" as="alternateBounds" />
          </mxGeometry>
        </mxCell>
        <mxCell id="Cp7S3kw-1pVmLMMxV-p4-5" value="sup_id" style="text;strokeColor=none;fillColor=none;align=left;verticalAlign=top;spacingLeft=4;spacingRight=4;overflow=hidden;rotatable=0;points=[[0,0.5],[1,0.5]];portConstraint=eastwest;fontSize=20;fontStyle=4" vertex="1" parent="Cp7S3kw-1pVmLMMxV-p4-4">
          <mxGeometry y="26" width="157" height="26" as="geometry" />
        </mxCell>
        <mxCell id="Cp7S3kw-1pVmLMMxV-p4-6" value="sup_name&#xa;telephone&#xa;sup_place" style="text;strokeColor=none;fillColor=none;align=left;verticalAlign=top;spacingLeft=4;spacingRight=4;overflow=hidden;rotatable=0;points=[[0,0.5],[1,0.5]];portConstraint=eastwest;fontSize=20;" vertex="1" parent="Cp7S3kw-1pVmLMMxV-p4-4">
          <mxGeometry y="52" width="157" height="88" as="geometry" />
        </mxCell>
        <mxCell id="Cp7S3kw-1pVmLMMxV-p4-7" value="supply" style="rhombus;whiteSpace=wrap;html=1;fontSize=20;" vertex="1" parent="1">
          <mxGeometry x="806" y="1258" width="274" height="105" as="geometry" />
        </mxCell>
        <mxCell id="Cp7S3kw-1pVmLMMxV-p4-8" value="" style="swimlane;startSize=0;fontSize=20;" vertex="1" parent="1">
          <mxGeometry x="851" y="1102" width="183" height="102" as="geometry" />
        </mxCell>
        <mxCell id="Cp7S3kw-1pVmLMMxV-p4-9" value="color&lt;br&gt;parts_num&lt;br&gt;parts_price" style="text;html=1;align=center;verticalAlign=middle;resizable=0;points=[];autosize=1;strokeColor=none;fontSize=20;" vertex="1" parent="Cp7S3kw-1pVmLMMxV-p4-8">
          <mxGeometry x="37" y="13" width="109" height="76" as="geometry" />
        </mxCell>
        <mxCell id="Cp7S3kw-1pVmLMMxV-p4-10" style="edgeStyle=orthogonalEdgeStyle;rounded=1;orthogonalLoop=1;jettySize=auto;html=1;exitX=0;exitY=0.5;exitDx=0;exitDy=0;entryX=0;entryY=0.5;entryDx=0;entryDy=0;fontSize=11;endArrow=none;" edge="1" parent="1" source="Cp7S3kw-1pVmLMMxV-p4-15" target="Cp7S3kw-1pVmLMMxV-p4-7">
          <mxGeometry relative="1" as="geometry" />
        </mxCell>
        <mxCell id="Cp7S3kw-1pVmLMMxV-p4-11" style="edgeStyle=orthogonalEdgeStyle;rounded=1;orthogonalLoop=1;jettySize=auto;html=1;exitX=0;exitY=0.5;exitDx=0;exitDy=0;entryX=1;entryY=0.5;entryDx=0;entryDy=0;fontSize=11;endArrow=none;" edge="1" parent="1" source="Cp7S3kw-1pVmLMMxV-p4-6" target="Cp7S3kw-1pVmLMMxV-p4-7">
          <mxGeometry relative="1" as="geometry" />
        </mxCell>
        <mxCell id="Cp7S3kw-1pVmLMMxV-p4-12" value="" style="endArrow=none;dashed=1;html=1;dashPattern=1 3;strokeWidth=2;exitX=0.5;exitY=0;exitDx=0;exitDy=0;entryX=0.5;entryY=1;entryDx=0;entryDy=0;" edge="1" parent="1" source="Cp7S3kw-1pVmLMMxV-p4-7" target="Cp7S3kw-1pVmLMMxV-p4-8">
          <mxGeometry width="50" height="50" relative="1" as="geometry">
            <mxPoint x="897" y="1254" as="sourcePoint" />
            <mxPoint x="947" y="1209" as="targetPoint" />
          </mxGeometry>
        </mxCell>
        <mxCell id="Cp7S3kw-1pVmLMMxV-p4-13" value="parts" style="swimlane;fontStyle=0;childLayout=stackLayout;horizontal=1;startSize=26;horizontalStack=0;resizeParent=1;resizeParentMax=0;resizeLast=0;collapsible=1;marginBottom=0;fontSize=20;" vertex="1" parent="1">
          <mxGeometry x="600" y="935" width="161" height="93" as="geometry" />
        </mxCell>
        <mxCell id="Cp7S3kw-1pVmLMMxV-p4-14" value="parts_id" style="text;strokeColor=none;fillColor=none;align=left;verticalAlign=top;spacingLeft=4;spacingRight=4;overflow=hidden;rotatable=0;points=[[0,0.5],[1,0.5]];portConstraint=eastwest;fontSize=20;fontStyle=4" vertex="1" parent="Cp7S3kw-1pVmLMMxV-p4-13">
          <mxGeometry y="26" width="161" height="26" as="geometry" />
        </mxCell>
        <mxCell id="Cp7S3kw-1pVmLMMxV-p4-15" value="parts_name" style="text;strokeColor=none;fillColor=none;align=left;verticalAlign=top;spacingLeft=4;spacingRight=4;overflow=hidden;rotatable=0;points=[[0,0.5],[1,0.5]];portConstraint=eastwest;fontSize=20;fontStyle=4" vertex="1" parent="Cp7S3kw-1pVmLMMxV-p4-13">
          <mxGeometry y="52" width="161" height="41" as="geometry" />
        </mxCell>
        <mxCell id="Cp7S3kw-1pVmLMMxV-p4-16" value="project" style="swimlane;fontStyle=0;childLayout=stackLayout;horizontal=1;startSize=26;horizontalStack=0;resizeParent=1;resizeParentMax=0;resizeLast=0;collapsible=1;marginBottom=0;fontSize=20;" vertex="1" parent="1">
          <mxGeometry x="1119" y="821" width="157" height="253" as="geometry">
            <mxRectangle x="650" y="518" width="72" height="28" as="alternateBounds" />
          </mxGeometry>
        </mxCell>
        <mxCell id="Cp7S3kw-1pVmLMMxV-p4-17" value="project_id" style="text;strokeColor=none;fillColor=none;align=left;verticalAlign=top;spacingLeft=4;spacingRight=4;overflow=hidden;rotatable=0;points=[[0,0.5],[1,0.5]];portConstraint=eastwest;fontSize=20;fontStyle=4" vertex="1" parent="Cp7S3kw-1pVmLMMxV-p4-16">
          <mxGeometry y="26" width="157" height="26" as="geometry" />
        </mxCell>
        <mxCell id="Cp7S3kw-1pVmLMMxV-p4-18" value="project_name&#xa;p_size&#xa;money&#xa;phase&#xa;p_user_num&#xa;p_place&#xa;p_charger_id" style="text;strokeColor=none;fillColor=none;align=left;verticalAlign=top;spacingLeft=4;spacingRight=4;overflow=hidden;rotatable=0;points=[[0,0.5],[1,0.5]];portConstraint=eastwest;fontSize=20;" vertex="1" parent="Cp7S3kw-1pVmLMMxV-p4-16">
          <mxGeometry y="52" width="157" height="201" as="geometry" />
        </mxCell>
        <mxCell id="Cp7S3kw-1pVmLMMxV-p4-19" value="need_parts" style="rhombus;whiteSpace=wrap;html=1;fontSize=20;" vertex="1" parent="1">
          <mxGeometry x="801" y="922" width="274" height="105" as="geometry" />
        </mxCell>
        <mxCell id="Cp7S3kw-1pVmLMMxV-p4-20" value="" style="swimlane;startSize=0;fontSize=20;" vertex="1" parent="1">
          <mxGeometry x="846" y="766" width="183" height="102" as="geometry" />
        </mxCell>
        <mxCell id="Cp7S3kw-1pVmLMMxV-p4-21" value="color&lt;br&gt;parts_num&lt;br&gt;have_num&lt;br&gt;&lt;div style=&quot;text-align: left&quot;&gt;&lt;span&gt;sup_id&lt;/span&gt;&lt;/div&gt;" style="text;html=1;align=center;verticalAlign=middle;resizable=0;points=[];autosize=1;strokeColor=none;fontSize=20;" vertex="1" parent="Cp7S3kw-1pVmLMMxV-p4-20">
          <mxGeometry x="39" y="1" width="105" height="100" as="geometry" />
        </mxCell>
        <mxCell id="Cp7S3kw-1pVmLMMxV-p4-22" style="edgeStyle=orthogonalEdgeStyle;orthogonalLoop=1;jettySize=auto;html=1;exitX=1;exitY=0.5;exitDx=0;exitDy=0;entryX=0;entryY=0.5;entryDx=0;entryDy=0;fontSize=11;rounded=1;endArrow=none;" edge="1" parent="1" source="Cp7S3kw-1pVmLMMxV-p4-14" target="Cp7S3kw-1pVmLMMxV-p4-19">
          <mxGeometry relative="1" as="geometry" />
        </mxCell>
        <mxCell id="Cp7S3kw-1pVmLMMxV-p4-23" style="edgeStyle=orthogonalEdgeStyle;rounded=0;orthogonalLoop=1;jettySize=auto;html=1;exitX=1;exitY=0.5;exitDx=0;exitDy=0;fontSize=20;" edge="1" parent="1" source="Cp7S3kw-1pVmLMMxV-p4-19">
          <mxGeometry relative="1" as="geometry">
            <mxPoint x="1122" y="975" as="targetPoint" />
          </mxGeometry>
        </mxCell>
        <mxCell id="Cp7S3kw-1pVmLMMxV-p4-24" value="" style="endArrow=none;dashed=1;html=1;dashPattern=1 3;strokeWidth=2;exitX=0.5;exitY=0;exitDx=0;exitDy=0;entryX=0.5;entryY=1;entryDx=0;entryDy=0;" edge="1" parent="1" source="Cp7S3kw-1pVmLMMxV-p4-19" target="Cp7S3kw-1pVmLMMxV-p4-20">
          <mxGeometry width="50" height="50" relative="1" as="geometry">
            <mxPoint x="892" y="918" as="sourcePoint" />
            <mxPoint x="942" y="873" as="targetPoint" />
          </mxGeometry>
        </mxCell>
        <mxCell id="Cp7S3kw-1pVmLMMxV-p4-28" value="user" style="swimlane;fontStyle=0;childLayout=stackLayout;horizontal=1;startSize=26;horizontalStack=0;resizeParent=1;resizeParentMax=0;resizeLast=0;collapsible=1;marginBottom=0;fontSize=20;" vertex="1" parent="1">
          <mxGeometry x="1636" y="881" width="162" height="144" as="geometry" />
        </mxCell>
        <mxCell id="Cp7S3kw-1pVmLMMxV-p4-29" value="user_id" style="text;strokeColor=none;fillColor=none;align=left;verticalAlign=top;spacingLeft=4;spacingRight=4;overflow=hidden;rotatable=0;points=[[0,0.5],[1,0.5]];portConstraint=eastwest;fontSize=20;fontStyle=4" vertex="1" parent="Cp7S3kw-1pVmLMMxV-p4-28">
          <mxGeometry y="26" width="162" height="26" as="geometry" />
        </mxCell>
        <mxCell id="Cp7S3kw-1pVmLMMxV-p4-30" value="user_name&#xa;password&#xa;job" style="text;strokeColor=none;fillColor=none;align=left;verticalAlign=top;spacingLeft=4;spacingRight=4;overflow=hidden;rotatable=0;points=[[0,0.5],[1,0.5]];portConstraint=eastwest;fontSize=20;fontStyle=0" vertex="1" parent="Cp7S3kw-1pVmLMMxV-p4-28">
          <mxGeometry y="52" width="162" height="92" as="geometry" />
        </mxCell>
        <mxCell id="Cp7S3kw-1pVmLMMxV-p4-60" style="edgeStyle=orthogonalEdgeStyle;rounded=1;orthogonalLoop=1;jettySize=auto;html=1;exitX=1;exitY=0.5;exitDx=0;exitDy=0;entryX=0.006;entryY=-0.054;entryDx=0;entryDy=0;entryPerimeter=0;endArrow=none;" edge="1" parent="1" source="Cp7S3kw-1pVmLMMxV-p4-31" target="Cp7S3kw-1pVmLMMxV-p4-30">
          <mxGeometry relative="1" as="geometry" />
        </mxCell>
        <mxCell id="Cp7S3kw-1pVmLMMxV-p4-31" value="work" style="rhombus;whiteSpace=wrap;html=1;fontSize=20;" vertex="1" parent="1">
          <mxGeometry x="1317" y="891" width="281" height="70" as="geometry" />
        </mxCell>
        <mxCell id="Cp7S3kw-1pVmLMMxV-p4-32" value="" style="swimlane;startSize=0;fontSize=20;" vertex="1" parent="1">
          <mxGeometry x="1397.5" y="827" width="120" height="47" as="geometry" />
        </mxCell>
        <mxCell id="Cp7S3kw-1pVmLMMxV-p4-33" value="job_project" style="text;html=1;align=center;verticalAlign=middle;resizable=0;points=[];autosize=1;strokeColor=none;fontSize=20;" vertex="1" parent="Cp7S3kw-1pVmLMMxV-p4-32">
          <mxGeometry x="6" y="9.5" width="108" height="28" as="geometry" />
        </mxCell>
        <mxCell id="Cp7S3kw-1pVmLMMxV-p4-34" value="" style="endArrow=none;dashed=1;html=1;dashPattern=1 3;strokeWidth=2;exitX=0.5;exitY=0;exitDx=0;exitDy=0;entryX=0.5;entryY=1;entryDx=0;entryDy=0;" edge="1" parent="1" source="Cp7S3kw-1pVmLMMxV-p4-31" target="Cp7S3kw-1pVmLMMxV-p4-32">
          <mxGeometry width="50" height="50" relative="1" as="geometry">
            <mxPoint x="1412" y="918" as="sourcePoint" />
            <mxPoint x="1462" y="873" as="targetPoint" />
          </mxGeometry>
        </mxCell>
        <mxCell id="Cp7S3kw-1pVmLMMxV-p4-51" style="edgeStyle=orthogonalEdgeStyle;rounded=0;orthogonalLoop=1;jettySize=auto;html=1;exitX=0;exitY=0.5;exitDx=0;exitDy=0;entryX=1.006;entryY=0.655;entryDx=0;entryDy=0;entryPerimeter=0;" edge="1" parent="1" source="Cp7S3kw-1pVmLMMxV-p4-35" target="Cp7S3kw-1pVmLMMxV-p4-18">
          <mxGeometry relative="1" as="geometry" />
        </mxCell>
        <mxCell id="Cp7S3kw-1pVmLMMxV-p4-52" style="edgeStyle=orthogonalEdgeStyle;rounded=0;orthogonalLoop=1;jettySize=auto;html=1;exitX=1;exitY=0.5;exitDx=0;exitDy=0;entryX=-0.003;entryY=0.802;entryDx=0;entryDy=0;entryPerimeter=0;" edge="1" parent="1" source="Cp7S3kw-1pVmLMMxV-p4-35" target="Cp7S3kw-1pVmLMMxV-p4-30">
          <mxGeometry relative="1" as="geometry" />
        </mxCell>
        <mxCell id="Cp7S3kw-1pVmLMMxV-p4-35" value="charge" style="rhombus;whiteSpace=wrap;html=1;fontSize=20;" vertex="1" parent="1">
          <mxGeometry x="1317" y="971" width="281" height="70" as="geometry" />
        </mxCell>
        <mxCell id="Cp7S3kw-1pVmLMMxV-p4-43" style="edgeStyle=orthogonalEdgeStyle;rounded=0;orthogonalLoop=1;jettySize=auto;html=1;exitX=1;exitY=0.5;exitDx=0;exitDy=0;entryX=0.5;entryY=0;entryDx=0;entryDy=0;strokeColor=#000000;" edge="1" parent="1" source="Cp7S3kw-1pVmLMMxV-p4-44" target="Cp7S3kw-1pVmLMMxV-p4-16">
          <mxGeometry relative="1" as="geometry">
            <mxPoint x="1332.6279999999997" y="543.973" as="targetPoint" />
          </mxGeometry>
        </mxCell>
        <mxCell id="Cp7S3kw-1pVmLMMxV-p4-44" value="&lt;font style=&quot;font-size: 20px&quot;&gt;finish&lt;/font&gt;" style="rhombus;whiteSpace=wrap;html=1;double=1;" vertex="1" parent="1">
          <mxGeometry x="1054" y="658" width="115.5" height="65" as="geometry" />
        </mxCell>
        <mxCell id="Cp7S3kw-1pVmLMMxV-p4-45" value="finish_project" style="swimlane;fontStyle=0;childLayout=stackLayout;horizontal=1;startSize=26;horizontalStack=0;resizeParent=1;resizeParentMax=0;resizeLast=0;collapsible=1;marginBottom=0;fontSize=20;" vertex="1" parent="1">
          <mxGeometry x="815" y="658" width="161" height="65" as="geometry" />
        </mxCell>
        <mxCell id="Cp7S3kw-1pVmLMMxV-p4-46" value="finish_date" style="text;strokeColor=none;fillColor=none;align=left;verticalAlign=top;spacingLeft=4;spacingRight=4;overflow=hidden;rotatable=0;points=[[0,0.5],[1,0.5]];portConstraint=eastwest;fontSize=20;fontStyle=0" vertex="1" parent="Cp7S3kw-1pVmLMMxV-p4-45">
          <mxGeometry y="26" width="161" height="39" as="geometry" />
        </mxCell>
        <mxCell id="Cp7S3kw-1pVmLMMxV-p4-47" value="" style="endArrow=none;html=1;strokeColor=#000000;shape=link;" edge="1" parent="1">
          <mxGeometry width="50" height="50" relative="1" as="geometry">
            <mxPoint x="978" y="689.9099999999999" as="sourcePoint" />
            <mxPoint x="1056.5" y="689.9099999999999" as="targetPoint" />
          </mxGeometry>
        </mxCell>
        <mxCell id="Cp7S3kw-1pVmLMMxV-p4-48" value="bid_project" style="swimlane;fontStyle=0;childLayout=stackLayout;horizontal=1;startSize=26;horizontalStack=0;resizeParent=1;resizeParentMax=0;resizeLast=0;collapsible=1;marginBottom=0;fontSize=20;" vertex="1" parent="1">
          <mxGeometry x="1407" y="1218" width="180" height="139" as="geometry">
            <mxRectangle x="650" y="518" width="72" height="28" as="alternateBounds" />
          </mxGeometry>
        </mxCell>
        <mxCell id="Cp7S3kw-1pVmLMMxV-p4-49" value="bid_project_id" style="text;strokeColor=none;fillColor=none;align=left;verticalAlign=top;spacingLeft=4;spacingRight=4;overflow=hidden;rotatable=0;points=[[0,0.5],[1,0.5]];portConstraint=eastwest;fontSize=20;fontStyle=4" vertex="1" parent="Cp7S3kw-1pVmLMMxV-p4-48">
          <mxGeometry y="26" width="180" height="26" as="geometry" />
        </mxCell>
        <mxCell id="Cp7S3kw-1pVmLMMxV-p4-50" value="bid_project_name&#xa;description&#xa;bid_money" style="text;strokeColor=none;fillColor=none;align=left;verticalAlign=top;spacingLeft=4;spacingRight=4;overflow=hidden;rotatable=0;points=[[0,0.5],[1,0.5]];portConstraint=eastwest;fontSize=20;" vertex="1" parent="Cp7S3kw-1pVmLMMxV-p4-48">
          <mxGeometry y="52" width="180" height="87" as="geometry" />
        </mxCell>
        <mxCell id="Cp7S3kw-1pVmLMMxV-p4-59" value="" style="endArrow=none;html=1;exitX=0;exitY=0.5;exitDx=0;exitDy=0;" edge="1" parent="1" source="Cp7S3kw-1pVmLMMxV-p4-31">
          <mxGeometry width="50" height="50" relative="1" as="geometry">
            <mxPoint x="1199" y="1032" as="sourcePoint" />
            <mxPoint x="1277" y="927" as="targetPoint" />
          </mxGeometry>
        </mxCell>
      </root>
    </mxGraphModel>
  </diagram>
</mxfile>
